<?xml version="1.0" encoding="UTF-8" standalone="no"?>
<!-- Created with Inkscape (http://www.inkscape.org/) -->

<svg
   xmlns:dc="http://purl.org/dc/elements/1.1/"
   xmlns:cc="http://creativecommons.org/ns#"
   xmlns:rdf="http://www.w3.org/1999/02/22-rdf-syntax-ns#"
   xmlns:svg="http://www.w3.org/2000/svg"
   xmlns="http://www.w3.org/2000/svg"
   xmlns:sodipodi="http://sodipodi.sourceforge.net/DTD/sodipodi-0.dtd"
   xmlns:inkscape="http://www.inkscape.org/namespaces/inkscape"
   width="210mm"
   height="297mm"
   viewBox="0 0 210 297"
   version="1.1"
   id="svg8"
   inkscape:version="0.92.4 (5da689c313, 2019-01-14)"
   sodipodi:docname="boas-logo2.svg">
  <defs
     id="defs2" />
  <sodipodi:namedview
     id="base"
     pagecolor="#ffffff"
     bordercolor="#666666"
     borderopacity="1.0"
     inkscape:pageopacity="0.0"
     inkscape:pageshadow="2"
     inkscape:zoom="0.98994949"
     inkscape:cx="156.08001"
     inkscape:cy="770.55901"
     inkscape:document-units="mm"
     inkscape:current-layer="layer1"
     showgrid="false"
     inkscape:window-width="1920"
     inkscape:window-height="1017"
     inkscape:window-x="-8"
     inkscape:window-y="-8"
     inkscape:window-maximized="1" />
  <metadata
     id="metadata5">
    <rdf:RDF>
      <cc:Work
         rdf:about="">
        <dc:format>image/svg+xml</dc:format>
        <dc:type
           rdf:resource="http://purl.org/dc/dcmitype/StillImage" />
        <dc:title></dc:title>
      </cc:Work>
    </rdf:RDF>
  </metadata>
  <g
     inkscape:label="Layer 1"
     inkscape:groupmode="layer"
     id="layer1">
    <path
       style="fill:#000000;stroke-width:0.04919884"
       d="M 8.0935313,27.458062 C 7.3609722,27.281304 6.7473555,26.729376 6.5838203,26.100127 L 6.5507323,25.972801 6.377674,26.168588 C 6.2442558,26.319528 6.1639423,26.367761 6.0270482,26.379157 5.8705033,26.392187 5.820538,26.365737 5.6050151,26.15569 4.9195291,25.487649 4.836876,25.428731 4.5851976,25.428731 c -0.3745,0 -0.5694484,0.173137 -0.9499083,0.843634 -0.4245125,0.748131 -0.7086878,0.982015 -1.1931764,0.982015 -0.4873102,0 -1.1788342,-0.486612 -1.50653146,-1.060119 -0.44030184,-0.770574 -0.40390569,-1.998485 0.0840267,-2.834843 0.5547098,-0.950819 1.5736706,-1.658637 2.9099342,-2.021379 0.437165,-0.118673 0.5440991,-0.129363 1.298423,-0.129797 0.9382502,-5.35e-4 1.1959571,0.0479 1.8561803,0.34886 0.8799447,0.401128 1.2256642,0.892803 1.2235214,1.740072 -0.00102,0.425747 -0.026451,0.538153 -0.2726258,1.207867 -0.2833738,0.770904 -0.1769406,1.224829 0.3416161,1.456939 0.2138741,0.09573 0.4749707,0.04194 0.7195967,-0.148259 0.3024536,-0.235162 0.4390953,-0.549284 0.4652729,-1.069609 L 9.5833439,24.31052 9.2307291,23.580259 C 8.2481548,21.545356 8.2113098,21.21243 8.7807108,19.514066 8.8938664,19.17655 9.0355669,18.638902 9.0956014,18.319291 9.1556359,17.99968 9.2658015,17.512256 9.340414,17.236126 9.438725,16.872293 9.4872783,16.526741 9.5167758,15.980993 9.5624608,15.135781 9.6240885,14.951549 9.9720087,14.620125 10.169152,14.432327 10.327886,14.367758 10.720413,14.315691 l 0.215592,-0.0286 0.06284,0.234274 c 0.121633,0.453493 0.05884,0.691522 -0.258617,0.980391 -0.279358,0.254199 -0.332696,0.438501 -0.310411,1.072569 0.05083,1.445985 0.04449,1.507665 -0.232573,2.264856 -0.5896318,1.611403 -0.5506302,2.095184 0.327026,4.056457 0.495083,1.106349 0.640005,1.543847 0.680778,2.055165 0.06833,0.856921 -0.420969,1.714118 -1.2442864,2.179843 -0.6220769,0.351891 -1.2844332,0.468033 -1.8672263,0.327413 z M 2.8042027,26.006044 C 3.02248,25.927556 3.2503264,25.70372 3.5402096,25.282992 3.9392748,24.703803 4.2329613,24.522277 4.6578519,24.592189 4.9078031,24.633316 5.3779718,24.84525 5.6897,25.057311 L 5.9603113,25.2414 6.0771037,24.868893 c 0.064236,-0.204877 0.117997,-0.486211 0.1194659,-0.625183 0.00555,-0.525725 -0.3508284,-0.776295 -0.8121372,-0.570996 -0.086058,0.0383 -0.1564679,0.05925 -0.1564679,0.04657 0,-0.04339 0.4198576,-0.207484 0.5308584,-0.207484 0.1621388,0 0.3921359,0.114234 0.5452079,0.270791 0.1667821,0.170582 0.2844399,0.472259 0.3561341,0.913142 0.050279,0.309194 0.1064791,0.479129 0.1053069,0.318424 -2.007e-4,-0.03556 0.1568557,-0.335007 0.3491468,-0.665433 0.3962725,-0.680943 0.4498508,-0.880005 0.3172722,-1.178767 -0.3943666,-0.888692 -2.4186719,-1.056698 -4.1396579,-0.343568 -0.7199013,0.298309 -1.1744003,0.655188 -1.4402917,1.130941 -0.1729999,0.309545 -0.1930496,0.383726 -0.193096,0.71443 -9.03e-5,0.643344 0.2424596,1.163669 0.6164348,1.322391 0.2082343,0.08838 0.3098613,0.09067 0.5289227,0.0119 z m 3.8456714,-0.508853 -0.00252,-0.136923 -0.040485,0.136923 c -0.022263,0.07531 -0.041631,0.178002 -0.043028,0.228208 l -0.00252,0.09128 0.045579,-0.09128 c 0.025067,-0.05021 0.044431,-0.152898 0.043028,-0.228208 z"
       id="path5176"
       inkscape:connector-curvature="0" />
  </g>
</svg>
