<?xml version="1.0" encoding="UTF-8" standalone="no"?>
<!-- Created with Inkscape (http://www.inkscape.org/) -->

<svg
   xmlns:dc="http://purl.org/dc/elements/1.1/"
   xmlns:cc="http://creativecommons.org/ns#"
   xmlns:rdf="http://www.w3.org/1999/02/22-rdf-syntax-ns#"
   xmlns:svg="http://www.w3.org/2000/svg"
   xmlns="http://www.w3.org/2000/svg"
   xmlns:sodipodi="http://sodipodi.sourceforge.net/DTD/sodipodi-0.dtd"
   xmlns:inkscape="http://www.inkscape.org/namespaces/inkscape"
   width="210mm"
   height="297mm"
   viewBox="0 0 210 297"
   version="1.1"
   id="svg8"
   inkscape:version="0.92.4 (5da689c313, 2019-01-14)"
   sodipodi:docname="boas-logo.svg">
  <defs
     id="defs2" />
  <sodipodi:namedview
     id="base"
     pagecolor="#ffffff"
     bordercolor="#666666"
     borderopacity="1.0"
     inkscape:pageopacity="0.0"
     inkscape:pageshadow="2"
     inkscape:zoom="0.98994949"
     inkscape:cx="156.08001"
     inkscape:cy="528.1224"
     inkscape:document-units="mm"
     inkscape:current-layer="layer1"
     showgrid="false"
     inkscape:window-width="1920"
     inkscape:window-height="1017"
     inkscape:window-x="-8"
     inkscape:window-y="-8"
     inkscape:window-maximized="1" />
  <metadata
     id="metadata5">
    <rdf:RDF>
      <cc:Work
         rdf:about="">
        <dc:format>image/svg+xml</dc:format>
        <dc:type
           rdf:resource="http://purl.org/dc/dcmitype/StillImage" />
        <dc:title></dc:title>
      </cc:Work>
    </rdf:RDF>
  </metadata>
  <g
     inkscape:label="Layer 1"
     inkscape:groupmode="layer"
     id="layer1">
    <path
       style="fill:#000000;stroke-width:0.26458332"
       d="m 76.359893,165.6245 c -3.65471,-1.02467 -6.71602,-4.22421 -7.53189,-7.87198 l -0.16508,-0.73811 -0.86338,1.13498 c -0.66562,0.875 -1.0663,1.15461 -1.74926,1.22067 -0.780995,0.0755 -1.030272,-0.0778 -2.105507,-1.29544 -3.419864,-3.87265 -3.832217,-4.2142 -5.087831,-4.2142 -1.868366,0 -2.840956,1.00368 -4.739056,4.89057 -2.117876,4.33693 -3.535616,5.69276 -5.952711,5.69276 -2.431172,0 -5.881159,-2.8209 -7.516028,-6.14553 -2.196649,-4.46704 -2.01507,-11.58527 0.419206,-16.43365 2.767426,-5.51192 7.850982,-9.61516 14.51755,-11.71798 2.181,-0.68795 2.71449,-0.74992 6.477783,-0.75244 4.680894,-0.003 5.966584,0.27764 9.260414,2.02235 4.39001,2.32535 6.11479,5.1756 6.1041,10.08724 -0.005,2.46806 -0.13195,3.11968 -1.36012,7.00203 -1.41374,4.46895 -0.88275,7.10036 1.70431,8.44591 1.06701,0.55496 2.36961,0.24312 3.59004,-0.85946 1.50893,-1.36324 2.19063,-3.18421 2.32123,-6.20055 l 0.10884,-2.51354 -1.75918,-4.23334 c -4.90202,-11.79638 -5.08584,-13.72636 -2.24512,-23.57181 0.56453,-1.95659 1.27147,-5.07335 1.57098,-6.92614 0.29951,-1.85279 0.84912,-4.6784 1.22136,-6.27913 0.49047,-2.10915 0.7327,-4.11232 0.87986,-7.276036 0.22792,-4.89971 0.53538,-5.96771 2.27114,-7.88898 0.98354,-1.08867 1.77546,-1.46298 3.73376,-1.76481 l 1.07558,-0.16578 0.31349,1.35809 c 0.60682,2.62891 0.29357,4.00877 -1.29023,5.68335 -1.39371,1.4736 -1.65981,2.542 -1.54863,6.217706 0.25357,8.38241 0.22197,8.73997 -1.1603,13.12942 -2.94165,9.34134 -2.74707,12.14583 1.63152,23.51537 2.46995,6.41353 3.19296,8.94972 3.39638,11.91384 0.3409,4.96759 -2.1002,9.93678 -6.2077,12.6366 -3.10352,2.03992 -6.40799,2.7132 -9.31552,1.89802 z m -26.388259,-8.41738 c 1.088977,-0.455 2.225694,-1.75258 3.67191,-4.19155 1.990921,-3.35757 3.456112,-4.40988 5.575875,-4.0046 1.246997,0.23841 3.59265,1.467 5.147852,2.69632 l 1.350068,1.06717 0.582674,-2.15943 c 0.32047,-1.18768 0.58868,-2.81857 0.59601,-3.6242 0.0277,-3.04764 -1.750271,-4.5002 -4.051723,-3.31008 -0.429337,0.22202 -0.780611,0.3435 -0.780611,0.26996 0,-0.2515 2.094654,-1.20279 2.648432,-1.20279 0.808903,0 1.956352,0.66222 2.720022,1.56978 0.83207,0.98887 1.41906,2.7377 1.77674,5.29351 0.25084,1.7924 0.53122,2.77752 0.52537,1.84591 -10e-4,-0.20616 0.78255,-1.94204 1.74188,-3.85753 1.97699,-3.94744 2.24429,-5.10141 1.58286,-6.83334 -1.96748,-5.15177 -12.066662,-6.1257 -20.652595,-1.99167 -3.59156,1.7293 -5.859038,3.79814 -7.18556,6.55609 -0.86309,1.79444 -0.963117,2.22447 -0.963349,4.14157 -4.5e-4,3.72948 1.209622,6.74581 3.07537,7.66593 1.038873,0.51234 1.545886,0.52559 2.638775,0.069 z m 19.185909,-2.94983 -0.0127,-0.79375 -0.20198,0.79375 c -0.11108,0.43657 -0.20769,1.03188 -0.21468,1.32292 l -0.0127,0.52917 0.22739,-0.52917 c 0.12506,-0.29104 0.22167,-0.88635 0.21468,-1.32292 z"
       id="path5176"
       inkscape:connector-curvature="0" />
  </g>
</svg>
